<?xml version="1.0" encoding="UTF-8" standalone="no"?>
<svg
   version="1.1"
   viewBox="0 0 48 48"
   xmlns="http://www.w3.org/2000/svg"
   xmlns:svg="http://www.w3.org/2000/svg">
  <defs>
    <linearGradient id="linearGradient1"
       x1="370.22" x2="370.03"
       y1="509.64" y2="479.76"
       gradientTransform="matrix(1.4 0 0 1.4 -494.1 -384.37)"
       gradientUnits="userSpaceOnUse">
      <stop stop-color="#197cf1" offset="0" />
      <stop stop-color="#21c9fb" offset="1" />
    </linearGradient>
    <linearGradient id="linearGradient2"
       x1="0" y1="532.79"
       x2="0" y2="514.8"
       gradientTransform="matrix(1.7778 0 0 1.7778 -703.31 -908.76)"
       gradientUnits="userSpaceOnUse">
      <stop stop-color="#7cbaf8" offset="0" />
      <stop stop-color="#f4fcff" offset="1" />
    </linearGradient>
    <linearGradient id="linearGradient3"
       x1="25.793" x2="41.606"
       y1="26.896" y2="43.624"
       gradientTransform="translate(-5.029 277.22)"
       gradientUnits="userSpaceOnUse">
      <stop stop-color="#292c2f" offset="0" />
      <stop stop-color="#292c2f" stop-opacity="0" offset="1" />
    </linearGradient>
  </defs>
  <g transform="translate(0 -284.3)">
    <circle
       cx="24" cy="308.3"
       r="21"
       fill="url(#linearGradient1)"
       stroke-width="2.0568" />
    <path
       d="m27.5 293.8 1.378 5.1163 0.41925 8.7994-4.1183 4.3981-6.8517 1.643-8.327-2.4568 17.5 17.5c7.6054-0.0221 16.947-9.2709 17-18z"
       fill="url(#linearGradient3)"
       opacity=".2" />
  </g>
  <path
     style="fill:#232629;stroke:none"
     d="m 30,12 v 1 h 1 v -1 z m 1,1 v 1 h -1 v 1 h 2 v -2 z m 2,-1 v 6 h 6 v -6 z m 1,1 h 4 v 4 h -4 z m 1,1 v 2 h 2 v -2 z m -4,4 h 1 v -1 c -1.069356,-0.07681 -1,-0.0037 -1,1 z m 0,4 h -1 v 1 h 1 v 1 h 1 v -3 c -1.069356,-0.07681 -1,-0.0037 -1,1 z m 0,2 h -1 v 1 h 1 z m 1,-5 v 1 h 1 v -1 z m 1,1 v 1 h 3 v -1 h -1 v -1 h -1 v 1 z m 4,-1 v 2 h 1 v -1 h 1 v -1 z m -4,3 v 4 h 1 v 1 h 1 v -1 h 2 v -1 h 1 v -1 h -1 v -2 z m 5,2 h 1 v -2 h -1 z m 0,1 v 1 h 1 v -1 z m -3,2 v 1 h 2 v -1 z m -1,-4 h 2 v 2 h -2 z m -4,3 v 1 h 1 v -1 z m 2,1 v 1 h 1 v -1 z m 6,0 v 1 h 1 v -1 z" />
  <path
     style="fill:#232629;stroke:none"
     d="m 12,29 v 10 h 1 V 29 Z m 2,0 v 7 h 1 v -7 z m 2,0 v 10 h 1 V 29 Z m 2,0 v 10 h 2 V 29 Z m 3,0 v 10 h 2 V 29 Z m 3,0 v 5 h 1 v -5 z m 2,0 v 10 h 2 V 29 Z" />
  <g fill="#fcfcfc">
    <rect width="2" x="14" y="15" height="1" />
    <rect width="3" x="17" y="15" height="1" />
    <rect width="5" x="14" y="19" height="1" />
    <rect width="7" x="23" y="19" height="1" />
    <rect width="4" x="23" y="15" height="1" />
    <rect width="7" x="14" y="23" height="1" />
    <rect width="6" x="23" y="23" height="1" />
  </g>
  <path
     fill="url(#linearGradient2)"
     stroke-width="2.3112"
     d="m19.493 6.444c-6.8693 4e-6 -12.438 5.5686-12.438 12.438-7e-6 6.8692 5.5687 12.438 12.438 12.438 2.6825-0.0058 5.2913-0.87858 7.4372-2.4883l9.6127 10.113 2.5121-2.512-9.6127-10.113c1.6097-2.1458 2.4826-4.7546 2.4883-7.437-4e-6 -6.8692-5.5687-12.438-12.438-12.438m0 3.5537c4.9067-2e-6 8.8843 3.9776 8.8843 8.8842 0 4.9344-3.9739 8.8849-8.8853 8.8849-4.9067-9e-6 -8.8843-3.9776-8.8843-8.8842 0-5.5304 3.8973-8.8842 8.8844-8.8842" />
</svg>
